<?xml version="1.0" standalone="no"?>
<!DOCTYPE svg PUBLIC "-//W3C//DTD SVG 20010904//EN"
 "http://www.w3.org/TR/2001/REC-SVG-20010904/DTD/svg10.dtd">
<svg version="1.0" xmlns="http://www.w3.org/2000/svg"
 width="1001.000000pt" height="1001.000000pt" viewBox="0 0 1001.000000 1001.000000"
 preserveAspectRatio="xMidYMid meet">
<metadata>
Created by potrace 1.14, written by Peter Selinger 2001-2017
</metadata>
<g transform="translate(0.000000,1001.000000) scale(0.100000,-0.100000)"
fill="#000000" stroke="none">
<path d="M4707 9804 c-1 -1 -103 -4 -227 -8 -124 -4 -241 -8 -260 -11 -19 -2
-78 -6 -130 -10 -52 -3 -113 -7 -135 -9 -22 -2 -74 -7 -115 -11 -41 -3 -86 -8
-100 -10 -14 -2 -54 -6 -90 -10 -36 -3 -76 -8 -90 -10 -14 -2 -45 -7 -70 -10
-25 -3 -70 -10 -100 -15 -30 -5 -72 -12 -94 -16 -21 -3 -48 -8 -60 -10 -11 -2
-37 -7 -56 -10 -160 -25 -526 -118 -686 -174 -49 -17 -97 -33 -106 -35 -10 -2
-32 -10 -50 -18 -18 -8 -60 -24 -93 -37 -249 -96 -556 -273 -775 -446 -107
-85 -337 -314 -420 -419 -238 -301 -425 -667 -557 -1090 -30 -98 -69 -233 -78
-275 -2 -8 -12 -53 -23 -100 -21 -87 -57 -268 -67 -330 -3 -19 -10 -60 -15
-90 -13 -79 -30 -205 -45 -335 -3 -27 -8 -68 -11 -90 -2 -22 -6 -65 -9 -95 -4
-65 -14 -195 -20 -265 -14 -161 -20 -436 -20 -855 0 -494 6 -702 29 -995 13
-156 16 -188 26 -267 5 -46 12 -103 14 -128 3 -25 7 -59 10 -75 2 -17 7 -50
10 -75 3 -25 8 -54 10 -65 2 -11 7 -40 10 -65 16 -118 74 -402 101 -500 9 -30
18 -66 21 -80 11 -58 110 -367 139 -435 7 -16 32 -77 56 -135 201 -480 509
-886 896 -1176 54 -41 103 -77 108 -82 37 -29 222 -137 340 -197 311 -159 613
-262 1050 -359 61 -13 130 -27 155 -31 25 -4 54 -9 65 -11 30 -6 193 -32 245
-39 25 -3 56 -8 70 -10 14 -2 54 -7 90 -10 36 -4 72 -9 80 -10 8 -2 49 -6 90
-9 41 -4 95 -9 120 -11 446 -43 1347 -53 1835 -20 186 12 254 17 285 20 19 2
67 6 105 9 39 4 86 9 105 11 19 2 56 7 83 10 88 10 132 15 154 19 11 3 43 8
70 11 26 4 84 13 128 21 119 20 120 20 265 49 14 3 36 7 50 10 219 40 628 174
876 286 679 307 1185 826 1469 1509 15 36 33 79 40 95 38 89 146 416 160 484
2 9 13 53 24 98 20 78 79 359 86 413 2 14 6 39 9 55 20 114 37 246 56 420 5
55 13 123 16 150 5 51 11 129 19 245 28 424 28 1371 0 1720 -2 25 -6 88 -10
140 -4 52 -9 111 -10 130 -5 57 -15 153 -20 180 -2 14 -7 52 -10 85 -3 33 -8
71 -10 85 -2 14 -6 41 -9 60 -5 35 -19 130 -21 140 -1 6 -15 86 -21 120 -2 14
-18 90 -34 170 -17 80 -33 154 -35 166 -9 41 -87 311 -110 379 -141 419 -332
774 -569 1060 -61 73 -285 298 -345 345 -24 19 -48 40 -55 45 -6 6 -49 38 -96
72 -367 262 -792 443 -1360 579 -31 7 -326 65 -355 69 -16 2 -61 9 -100 15
-38 6 -86 13 -105 16 -19 2 -48 6 -65 9 -16 2 -57 7 -90 10 -33 3 -71 8 -85
10 -14 2 -56 7 -95 10 -38 3 -90 8 -114 11 -24 2 -80 7 -125 9 -44 3 -115 7
-156 10 -208 13 -1051 29 -1063 19z m-876 -968 c78 -7 141 -14 199 -22 95 -13
167 -24 190 -29 34 -7 70 -14 102 -20 16 -3 58 -12 95 -21 38 -9 75 -17 83
-19 8 -2 79 -22 158 -44 432 -124 911 -340 1322 -598 74 -47 144 -90 155 -97
11 -6 22 -13 25 -16 3 -3 41 -30 85 -59 189 -129 487 -366 680 -542 104 -94
378 -371 471 -474 206 -229 500 -612 618 -805 15 -25 46 -74 68 -110 262 -416
481 -911 612 -1383 40 -144 70 -276 92 -407 24 -148 25 -153 43 -335 9 -83 6
-554 -3 -615 -3 -19 -8 -52 -11 -73 -122 -933 -690 -1624 -1550 -1885 -55 -17
-116 -34 -135 -38 -19 -4 -37 -8 -40 -9 -63 -15 -154 -32 -220 -41 -25 -3 -53
-8 -62 -9 -127 -25 -547 -24 -755 0 -75 9 -138 17 -158 21 -11 2 -37 6 -57 9
-20 3 -56 9 -80 14 -24 6 -59 13 -78 16 -87 14 -369 90 -505 136 -423 142
-878 362 -1255 607 -196 127 -573 408 -685 510 -11 10 -63 56 -115 102 -108
95 -392 378 -493 490 -37 41 -76 84 -86 95 -181 195 -538 688 -681 940 -9 17
-43 75 -75 130 -31 55 -97 181 -145 280 -260 533 -420 1081 -467 1597 -15 162
-6 688 12 717 2 4 6 29 9 56 7 54 31 177 47 240 6 22 13 47 14 57 14 69 98
289 159 413 235 478 580 803 1099 1034 98 44 348 121 447 137 14 2 36 7 50 10
27 6 39 8 115 20 69 10 76 10 195 19 58 4 106 8 107 10 6 4 334 -3 404 -9z"/>
</g>
</svg>
