<?xml version="1.0" encoding="UTF-8"?>
<svg id="TitanML_invert_logo" data-name="TitanML invert logo" xmlns="http://www.w3.org/2000/svg" xmlns:xlink="http://www.w3.org/1999/xlink" viewBox="0 0 1110 250">
  <defs>
    <style>
      .cls-1 {
        fill: url(#linear-gradient);
      }

      .cls-2 {
        fill: #101820;
      }

      .cls-3 {
        fill: #a2a9ad;
      }
    </style>
    <linearGradient id="linear-gradient" x1="33.23" y1="31.83" x2="220.73" y2="219.33" gradientUnits="userSpaceOnUse">
      <stop offset="0" stop-color="#e4605b"/>
      <stop offset=".25" stop-color="#fbbe6a"/>
      <stop offset=".5" stop-color="#fde7dd"/>
      <stop offset=".75" stop-color="#73c9e7"/>
      <stop offset="1" stop-color="#383f92"/>
    </linearGradient>
  </defs>
  <g>
    <polygon class="cls-3" points="1032.87 40.63 1013.8 68.36 994.88 40.82 994.74 40.63 984.69 40.63 984.69 89.39 993.89 89.39 993.89 54.6 1013.77 83.58 1033.73 54.6 1033.73 89.39 1042.86 89.39 1042.86 40.63 1032.87 40.63"/>
    <polygon class="cls-3" points="1070.44 80.2 1070.44 40.63 1061.25 40.63 1061.25 89.39 1103.6 89.39 1103.6 80.2 1070.44 80.2"/>
  </g>
  <g>
    <polygon class="cls-2" points="316.15 68.35 358.06 68.35 358.06 209.37 385.97 209.37 385.97 68.35 427.84 68.35 427.84 40.63 316.15 40.63 316.15 68.35"/>
    <rect class="cls-2" x="455.72" y="89.39" width="27.9" height="120.01"/>
    <rect class="cls-2" x="451.54" y="36.47" width="36.27" height="36.02" rx="18.01" ry="18.01"/>
    <path class="cls-2" d="M609.26,96.41v-27.89h-41.89v-27.9h-6.98l-48.99,48.82v6.97h28.06v65.92c0,25.94,21.12,47.06,47.09,47.06h22.71v-27.7h-22.71c-10.57,0-19.18-8.69-19.18-19.36V96.41h41.89Z"/>
    <path class="cls-2" d="M759.01,68.59l-3.54,13.22c-13.09-10.4-28.7-15.86-45.32-15.86-40.27,0-73.03,32.76-73.03,73.05s32.77,73.03,73.03,73.03c16.51,0,32.13-5.41,45.32-15.72v13.06h27.72V68.59h-24.18Zm-48.87,115.72c-24.89,0-45.16-20.32-45.16-45.3s20.26-45.18,45.16-45.18,45.32,20.28,45.32,45.18-20.33,45.3-45.32,45.3Z"/>
    <path class="cls-2" d="M890.92,65.9c-13.61,0-26.69,4.2-37.97,12.19l-2.59-9.55h-25.32V209.4h27.91v-77.63c0-20.95,17.03-37.98,37.97-37.98s38.15,17.03,38.15,37.98v77.63h27.72v-77.63c0-36.32-29.55-65.87-65.87-65.87Z"/>
  </g>
  <path class="cls-1" d="M126.4,5C36.4,5,6.4,35,6.4,125s30,120,120,120,120-30,120-120S216.4,5,126.4,5Zm79.59,199.59c-29.7,29.7-89.41,18.14-133.36-25.82C28.67,134.82,17.11,75.11,46.81,45.41c29.7-29.7,89.4-18.14,133.36,25.82,43.96,43.96,55.52,103.67,25.82,133.36Z"/>
</svg>
